<svg width="316" height="79" viewBox="0 0 316 79" fill="none" xmlns="http://www.w3.org/2000/svg">
<g filter="url(#filter0_d_1_28)">
<rect x="4" y="0.818176" width="65" height="70" rx="32.5" fill="#003351"/>
<path d="M53.2924 24.835C53.291 24.835 53.2903 24.8367 53.2913 24.8376C54.2371 25.7492 54.2362 27.2272 53.2886 28.1376L33.8622 46.8013C32.9136 47.7127 31.3732 47.7127 30.4246 46.8013L20.7114 37.4695C19.7629 36.5581 19.7629 35.0782 20.7114 34.1669C21.66 33.2555 23.2004 33.2555 24.149 34.1669L30.0692 39.8493C31.2303 40.9637 33.0639 40.9635 34.2246 39.8488L49.8586 24.835C50.8062 23.9245 52.3446 23.9237 53.2934 24.8323C53.2944 24.8333 53.2938 24.835 53.2924 24.835V24.835Z" fill="white"/>
</g>
<path d="M90.8203 47L84.6797 33.6289V44.2461C84.6797 45.2227 84.7852 45.832 84.9961 46.0742C85.2852 46.4023 85.7422 46.5664 86.3672 46.5664H86.9297V47H81.3984V46.5664H81.9609C82.6328 46.5664 83.1094 46.3633 83.3906 45.957C83.5625 45.707 83.6484 45.1367 83.6484 44.2461V33.8633C83.6484 33.1602 83.5703 32.6523 83.4141 32.3398C83.3047 32.1133 83.1016 31.9258 82.8047 31.7773C82.5156 31.6211 82.0469 31.543 81.3984 31.543V31.1094H85.8984L91.6641 43.543L97.3359 31.1094H101.836V31.543H101.285C100.605 31.543 100.125 31.7461 99.8438 32.1523C99.6719 32.4023 99.5859 32.9727 99.5859 33.8633V44.2461C99.5859 45.2227 99.6953 45.832 99.9141 46.0742C100.203 46.4023 100.66 46.5664 101.285 46.5664H101.836V47H95.0859V46.5664H95.6484C96.3281 46.5664 96.8047 46.3633 97.0781 45.957C97.25 45.707 97.3359 45.1367 97.3359 44.2461V33.6289L91.207 47H90.8203ZM104.906 40.3086C104.898 41.9023 105.285 43.1523 106.066 44.0586C106.848 44.9648 107.766 45.418 108.82 45.418C109.523 45.418 110.133 45.2266 110.648 44.8438C111.172 44.4531 111.609 43.7891 111.961 42.8516L112.324 43.0859C112.16 44.1562 111.684 45.1328 110.895 46.0156C110.105 46.8906 109.117 47.3281 107.93 47.3281C106.641 47.3281 105.535 46.8281 104.613 45.8281C103.699 44.8203 103.242 43.4688 103.242 41.7734C103.242 39.9375 103.711 38.5078 104.648 37.4844C105.594 36.4531 106.777 35.9375 108.199 35.9375C109.402 35.9375 110.391 36.3359 111.164 37.1328C111.938 37.9219 112.324 38.9805 112.324 40.3086H104.906ZM104.906 39.6289H109.875C109.836 38.9414 109.754 38.457 109.629 38.1758C109.434 37.7383 109.141 37.3945 108.75 37.1445C108.367 36.8945 107.965 36.7695 107.543 36.7695C106.895 36.7695 106.312 37.0234 105.797 37.5312C105.289 38.0312 104.992 38.7305 104.906 39.6289ZM116.484 30.3242C116.82 30.3242 117.105 30.4414 117.34 30.6758C117.574 30.9102 117.691 31.1953 117.691 31.5312C117.691 31.8594 117.574 32.1406 117.34 32.375C117.105 32.6094 116.82 32.7266 116.484 32.7266C116.156 32.7266 115.875 32.6094 115.641 32.375C115.406 32.1406 115.289 31.8594 115.289 31.5312C115.289 31.1953 115.406 30.9102 115.641 30.6758C115.875 30.4414 116.156 30.3242 116.484 30.3242ZM117.492 35.9492V46.7539C117.492 48.5898 117.102 49.9531 116.32 50.8438C115.539 51.7344 114.523 52.1797 113.273 52.1797C112.562 52.1797 112.035 52.0508 111.691 51.793C111.348 51.5352 111.176 51.2695 111.176 50.9961C111.176 50.7227 111.273 50.4883 111.469 50.293C111.656 50.0977 111.879 50 112.137 50C112.34 50 112.547 50.0508 112.758 50.1523C112.891 50.207 113.145 50.4023 113.52 50.7383C113.902 51.082 114.223 51.2539 114.48 51.2539C114.668 51.2539 114.852 51.1797 115.031 51.0312C115.211 50.8906 115.344 50.6484 115.43 50.3047C115.516 49.9688 115.559 49.2344 115.559 48.1016V40.4609C115.559 39.2812 115.523 38.5234 115.453 38.1875C115.398 37.9297 115.312 37.7539 115.195 37.6602C115.078 37.5586 114.918 37.5078 114.715 37.5078C114.496 37.5078 114.23 37.5664 113.918 37.6836L113.754 37.2617L116.988 35.9492H117.492ZM125.695 35.9492C127.32 35.9492 128.625 36.5664 129.609 37.8008C130.445 38.8555 130.863 40.0664 130.863 41.4336C130.863 42.3945 130.633 43.3672 130.172 44.3516C129.711 45.3359 129.074 46.0781 128.262 46.5781C127.457 47.0781 126.559 47.3281 125.566 47.3281C123.949 47.3281 122.664 46.6836 121.711 45.3945C120.906 44.3086 120.504 43.0898 120.504 41.7383C120.504 40.7539 120.746 39.7773 121.23 38.8086C121.723 37.832 122.367 37.1133 123.164 36.6523C123.961 36.1836 124.805 35.9492 125.695 35.9492ZM125.332 36.7109C124.918 36.7109 124.5 36.8359 124.078 37.0859C123.664 37.3281 123.328 37.7578 123.07 38.375C122.812 38.9922 122.684 39.7852 122.684 40.7539C122.684 42.3164 122.992 43.6641 123.609 44.7969C124.234 45.9297 125.055 46.4961 126.07 46.4961C126.828 46.4961 127.453 46.1836 127.945 45.5586C128.438 44.9336 128.684 43.8594 128.684 42.3359C128.684 40.4297 128.273 38.9297 127.453 37.8359C126.898 37.0859 126.191 36.7109 125.332 36.7109ZM135.586 35.9492V38.3633C136.484 36.7539 137.406 35.9492 138.352 35.9492C138.781 35.9492 139.137 36.082 139.418 36.3477C139.699 36.6055 139.84 36.9062 139.84 37.25C139.84 37.5547 139.738 37.8125 139.535 38.0234C139.332 38.2344 139.09 38.3398 138.809 38.3398C138.535 38.3398 138.227 38.207 137.883 37.9414C137.547 37.668 137.297 37.5312 137.133 37.5312C136.992 37.5312 136.84 37.6094 136.676 37.7656C136.324 38.0859 135.961 38.6133 135.586 39.3477V44.4922C135.586 45.0859 135.66 45.5352 135.809 45.8398C135.91 46.0508 136.09 46.2266 136.348 46.3672C136.605 46.5078 136.977 46.5781 137.461 46.5781V47H131.965V46.5781C132.512 46.5781 132.918 46.4922 133.184 46.3203C133.379 46.1953 133.516 45.9961 133.594 45.7227C133.633 45.5898 133.652 45.2109 133.652 44.5859V40.4258C133.652 39.1758 133.625 38.4336 133.57 38.1992C133.523 37.957 133.43 37.7812 133.289 37.6719C133.156 37.5625 132.988 37.5078 132.785 37.5078C132.543 37.5078 132.27 37.5664 131.965 37.6836L131.848 37.2617L135.094 35.9492H135.586ZM146.52 45.4531C145.418 46.3047 144.727 46.7969 144.445 46.9297C144.023 47.125 143.574 47.2227 143.098 47.2227C142.355 47.2227 141.742 46.9688 141.258 46.4609C140.781 45.9531 140.543 45.2852 140.543 44.457C140.543 43.9336 140.66 43.4805 140.895 43.0977C141.215 42.5664 141.77 42.0664 142.559 41.5977C143.355 41.1289 144.676 40.5586 146.52 39.8867V39.4648C146.52 38.3945 146.348 37.6602 146.004 37.2617C145.668 36.8633 145.176 36.6641 144.527 36.6641C144.035 36.6641 143.645 36.7969 143.355 37.0625C143.059 37.3281 142.91 37.6328 142.91 37.9766L142.934 38.6562C142.934 39.0156 142.84 39.293 142.652 39.4883C142.473 39.6836 142.234 39.7812 141.938 39.7812C141.648 39.7812 141.41 39.6797 141.223 39.4766C141.043 39.2734 140.953 38.9961 140.953 38.6445C140.953 37.9727 141.297 37.3555 141.984 36.793C142.672 36.2305 143.637 35.9492 144.879 35.9492C145.832 35.9492 146.613 36.1094 147.223 36.4297C147.684 36.6719 148.023 37.0508 148.242 37.5664C148.383 37.9023 148.453 38.5898 148.453 39.6289V43.2734C148.453 44.2969 148.473 44.9258 148.512 45.1602C148.551 45.3867 148.613 45.5391 148.699 45.6172C148.793 45.6953 148.898 45.7344 149.016 45.7344C149.141 45.7344 149.25 45.707 149.344 45.6523C149.508 45.5508 149.824 45.2656 150.293 44.7969V45.4531C149.418 46.625 148.582 47.2109 147.785 47.2109C147.402 47.2109 147.098 47.0781 146.871 46.8125C146.645 46.5469 146.527 46.0938 146.52 45.4531ZM146.52 44.6914V40.6016C145.34 41.0703 144.578 41.4023 144.234 41.5977C143.617 41.9414 143.176 42.3008 142.91 42.6758C142.645 43.0508 142.512 43.4609 142.512 43.9062C142.512 44.4688 142.68 44.9375 143.016 45.3125C143.352 45.6797 143.738 45.8633 144.176 45.8633C144.77 45.8633 145.551 45.4727 146.52 44.6914ZM160.219 32.7383V36.2656H162.727V37.0859H160.219V44.0469C160.219 44.7422 160.316 45.2109 160.512 45.4531C160.715 45.6953 160.973 45.8164 161.285 45.8164C161.543 45.8164 161.793 45.7383 162.035 45.582C162.277 45.418 162.465 45.1797 162.598 44.8672H163.055C162.781 45.6328 162.395 46.2109 161.895 46.6016C161.395 46.9844 160.879 47.1758 160.348 47.1758C159.988 47.1758 159.637 47.0781 159.293 46.8828C158.949 46.6797 158.695 46.3945 158.531 46.0273C158.367 45.6523 158.285 45.0781 158.285 44.3047V37.0859H156.586V36.6992C157.016 36.5273 157.453 36.2383 157.898 35.832C158.352 35.418 158.754 34.9297 159.105 34.3672C159.285 34.0703 159.535 33.5273 159.855 32.7383H160.219ZM173.191 36.2656V42.7695C173.191 44.0117 173.219 44.7734 173.273 45.0547C173.336 45.3281 173.43 45.5195 173.555 45.6289C173.688 45.7383 173.84 45.793 174.012 45.793C174.254 45.793 174.527 45.7266 174.832 45.5938L174.996 46.0039L171.785 47.3281H171.258V45.0547C170.336 46.0547 169.633 46.6836 169.148 46.9414C168.664 47.1992 168.152 47.3281 167.613 47.3281C167.012 47.3281 166.488 47.1562 166.043 46.8125C165.605 46.4609 165.301 46.0117 165.129 45.4648C164.957 44.918 164.871 44.1445 164.871 43.1445V38.3516C164.871 37.8438 164.816 37.4922 164.707 37.2969C164.598 37.1016 164.434 36.9531 164.215 36.8516C164.004 36.7422 163.617 36.6914 163.055 36.6992V36.2656H166.816V43.4492C166.816 44.4492 166.988 45.1055 167.332 45.418C167.684 45.7305 168.105 45.8867 168.598 45.8867C168.934 45.8867 169.312 45.7812 169.734 45.5703C170.164 45.3594 170.672 44.957 171.258 44.3633V38.2812C171.258 37.6719 171.145 37.2617 170.918 37.0508C170.699 36.832 170.238 36.7148 169.535 36.6992V36.2656H173.191ZM188.719 35.9492V39.6055H188.332C188.035 38.457 187.652 37.6758 187.184 37.2617C186.723 36.8477 186.133 36.6406 185.414 36.6406C184.867 36.6406 184.426 36.7852 184.09 37.0742C183.754 37.3633 183.586 37.6836 183.586 38.0352C183.586 38.4727 183.711 38.8477 183.961 39.1602C184.203 39.4805 184.695 39.8203 185.438 40.1797L187.148 41.0117C188.734 41.7852 189.527 42.8047 189.527 44.0703C189.527 45.0469 189.156 45.8359 188.414 46.4375C187.68 47.0312 186.855 47.3281 185.941 47.3281C185.285 47.3281 184.535 47.2109 183.691 46.9766C183.434 46.8984 183.223 46.8594 183.059 46.8594C182.879 46.8594 182.738 46.9609 182.637 47.1641H182.25V43.332H182.637C182.855 44.4258 183.273 45.25 183.891 45.8047C184.508 46.3594 185.199 46.6367 185.965 46.6367C186.504 46.6367 186.941 46.4805 187.277 46.168C187.621 45.8477 187.793 45.4648 187.793 45.0195C187.793 44.4805 187.602 44.0273 187.219 43.6602C186.844 43.293 186.09 42.8281 184.957 42.2656C183.824 41.7031 183.082 41.1953 182.73 40.7422C182.379 40.2969 182.203 39.7344 182.203 39.0547C182.203 38.1719 182.504 37.4336 183.105 36.8398C183.715 36.2461 184.5 35.9492 185.461 35.9492C185.883 35.9492 186.395 36.0391 186.996 36.2188C187.395 36.3359 187.66 36.3945 187.793 36.3945C187.918 36.3945 188.016 36.3672 188.086 36.3125C188.156 36.2578 188.238 36.1367 188.332 35.9492H188.719ZM197.215 45.4531C196.113 46.3047 195.422 46.7969 195.141 46.9297C194.719 47.125 194.27 47.2227 193.793 47.2227C193.051 47.2227 192.438 46.9688 191.953 46.4609C191.477 45.9531 191.238 45.2852 191.238 44.457C191.238 43.9336 191.355 43.4805 191.59 43.0977C191.91 42.5664 192.465 42.0664 193.254 41.5977C194.051 41.1289 195.371 40.5586 197.215 39.8867V39.4648C197.215 38.3945 197.043 37.6602 196.699 37.2617C196.363 36.8633 195.871 36.6641 195.223 36.6641C194.73 36.6641 194.34 36.7969 194.051 37.0625C193.754 37.3281 193.605 37.6328 193.605 37.9766L193.629 38.6562C193.629 39.0156 193.535 39.293 193.348 39.4883C193.168 39.6836 192.93 39.7812 192.633 39.7812C192.344 39.7812 192.105 39.6797 191.918 39.4766C191.738 39.2734 191.648 38.9961 191.648 38.6445C191.648 37.9727 191.992 37.3555 192.68 36.793C193.367 36.2305 194.332 35.9492 195.574 35.9492C196.527 35.9492 197.309 36.1094 197.918 36.4297C198.379 36.6719 198.719 37.0508 198.938 37.5664C199.078 37.9023 199.148 38.5898 199.148 39.6289V43.2734C199.148 44.2969 199.168 44.9258 199.207 45.1602C199.246 45.3867 199.309 45.5391 199.395 45.6172C199.488 45.6953 199.594 45.7344 199.711 45.7344C199.836 45.7344 199.945 45.707 200.039 45.6523C200.203 45.5508 200.52 45.2656 200.988 44.7969V45.4531C200.113 46.625 199.277 47.2109 198.48 47.2109C198.098 47.2109 197.793 47.0781 197.566 46.8125C197.34 46.5469 197.223 46.0938 197.215 45.4531ZM197.215 44.6914V40.6016C196.035 41.0703 195.273 41.4023 194.93 41.5977C194.312 41.9414 193.871 42.3008 193.605 42.6758C193.34 43.0508 193.207 43.4609 193.207 43.9062C193.207 44.4688 193.375 44.9375 193.711 45.3125C194.047 45.6797 194.434 45.8633 194.871 45.8633C195.465 45.8633 196.246 45.4727 197.215 44.6914ZM205.488 30.3359V44.5742C205.488 45.2461 205.535 45.6914 205.629 45.9102C205.73 46.1289 205.883 46.2969 206.086 46.4141C206.289 46.5234 206.668 46.5781 207.223 46.5781V47H201.961V46.5781C202.453 46.5781 202.789 46.5273 202.969 46.4258C203.148 46.3242 203.289 46.1562 203.391 45.9219C203.492 45.6875 203.543 45.2383 203.543 44.5742V34.8242C203.543 33.6133 203.516 32.8711 203.461 32.5977C203.406 32.3164 203.316 32.125 203.191 32.0234C203.074 31.9219 202.922 31.8711 202.734 31.8711C202.531 31.8711 202.273 31.9336 201.961 32.0586L201.762 31.6484L204.961 30.3359H205.488ZM217.887 36.2656V42.7695C217.887 44.0117 217.914 44.7734 217.969 45.0547C218.031 45.3281 218.125 45.5195 218.25 45.6289C218.383 45.7383 218.535 45.793 218.707 45.793C218.949 45.793 219.223 45.7266 219.527 45.5938L219.691 46.0039L216.48 47.3281H215.953V45.0547C215.031 46.0547 214.328 46.6836 213.844 46.9414C213.359 47.1992 212.848 47.3281 212.309 47.3281C211.707 47.3281 211.184 47.1562 210.738 46.8125C210.301 46.4609 209.996 46.0117 209.824 45.4648C209.652 44.918 209.566 44.1445 209.566 43.1445V38.3516C209.566 37.8438 209.512 37.4922 209.402 37.2969C209.293 37.1016 209.129 36.9531 208.91 36.8516C208.699 36.7422 208.312 36.6914 207.75 36.6992V36.2656H211.512V43.4492C211.512 44.4492 211.684 45.1055 212.027 45.418C212.379 45.7305 212.801 45.8867 213.293 45.8867C213.629 45.8867 214.008 45.7812 214.43 45.5703C214.859 45.3594 215.367 44.957 215.953 44.3633V38.2812C215.953 37.6719 215.84 37.2617 215.613 37.0508C215.395 36.832 214.934 36.7148 214.23 36.6992V36.2656H217.887ZM228.059 45.793C227.535 46.3398 227.023 46.7344 226.523 46.9766C226.023 47.2109 225.484 47.3281 224.906 47.3281C223.734 47.3281 222.711 46.8398 221.836 45.8633C220.961 44.8789 220.523 43.6172 220.523 42.0781C220.523 40.5391 221.008 39.1328 221.977 37.8594C222.945 36.5781 224.191 35.9375 225.715 35.9375C226.66 35.9375 227.441 36.2383 228.059 36.8398V34.8594C228.059 33.6328 228.027 32.8789 227.965 32.5977C227.91 32.3164 227.82 32.125 227.695 32.0234C227.57 31.9219 227.414 31.8711 227.227 31.8711C227.023 31.8711 226.754 31.9336 226.418 32.0586L226.266 31.6484L229.465 30.3359H229.992V42.7461C229.992 44.0039 230.02 44.7734 230.074 45.0547C230.137 45.3281 230.23 45.5195 230.355 45.6289C230.488 45.7383 230.641 45.793 230.812 45.793C231.023 45.793 231.305 45.7266 231.656 45.5938L231.785 46.0039L228.598 47.3281H228.059V45.793ZM228.059 44.9727V39.4414C228.012 38.9102 227.871 38.4258 227.637 37.9883C227.402 37.5508 227.09 37.2227 226.699 37.0039C226.316 36.7773 225.941 36.6641 225.574 36.6641C224.887 36.6641 224.273 36.9727 223.734 37.5898C223.023 38.4023 222.668 39.5898 222.668 41.1523C222.668 42.7305 223.012 43.9414 223.699 44.7852C224.387 45.6211 225.152 46.0391 225.996 46.0391C226.707 46.0391 227.395 45.6836 228.059 44.9727Z" fill="black"/>
<defs>
<filter id="filter0_d_1_28" x="0" y="0.818176" width="73" height="78" filterUnits="userSpaceOnUse" color-interpolation-filters="sRGB">
<feFlood flood-opacity="0" result="BackgroundImageFix"/>
<feColorMatrix in="SourceAlpha" type="matrix" values="0 0 0 0 0 0 0 0 0 0 0 0 0 0 0 0 0 0 127 0" result="hardAlpha"/>
<feOffset dy="4"/>
<feGaussianBlur stdDeviation="2"/>
<feComposite in2="hardAlpha" operator="out"/>
<feColorMatrix type="matrix" values="0 0 0 0 0 0 0 0 0 0 0 0 0 0 0 0 0 0 0.25 0"/>
<feBlend mode="normal" in2="BackgroundImageFix" result="effect1_dropShadow_1_28"/>
<feBlend mode="normal" in="SourceGraphic" in2="effect1_dropShadow_1_28" result="shape"/>
</filter>
</defs>
</svg>
