<svg width="316" height="74" viewBox="0 0 316 74" fill="none" xmlns="http://www.w3.org/2000/svg">
<g filter="url(#filter0_d_1_24)">
<rect x="4" width="65" height="66" rx="32.5" fill="#003351"/>
<path d="M53.2924 22.6444C53.291 22.6444 53.2904 22.6461 53.2914 22.647C54.2371 23.5065 54.2362 24.8999 53.2886 25.7583L33.8622 43.3556C32.9136 44.2148 31.3732 44.2148 30.4246 43.3556L20.7114 34.5569C19.7629 33.6977 19.7629 32.3023 20.7114 31.4431C21.66 30.5838 23.2004 30.5838 24.149 31.4431L30.1337 36.8591C31.2766 37.8935 33.0175 37.8932 34.1603 36.8586L49.8586 22.6444C50.8062 21.786 52.3446 21.7852 53.2934 22.6419C53.2943 22.6428 53.2937 22.6444 53.2924 22.6444V22.6444Z" fill="white"/>
</g>
<path d="M85.9219 36.5586V41.1875C85.9219 42.1875 86.0312 42.8086 86.25 43.0508C86.5469 43.3945 86.9961 43.5664 87.5977 43.5664H88.207V44H81.3984V43.5664H81.9961C82.668 43.5664 83.1484 43.3477 83.4375 42.9102C83.5938 42.668 83.6719 42.0938 83.6719 41.1875V30.9219C83.6719 29.9219 83.5664 29.3008 83.3555 29.0586C83.0508 28.7148 82.5977 28.543 81.9961 28.543H81.3984V28.1094H87.2227C88.6445 28.1094 89.7656 28.2578 90.5859 28.5547C91.4062 28.8438 92.0977 29.3359 92.6602 30.0312C93.2227 30.7266 93.5039 31.5508 93.5039 32.5039C93.5039 33.8008 93.0742 34.8555 92.2148 35.668C91.3633 36.4805 90.1562 36.8867 88.5938 36.8867C88.2109 36.8867 87.7969 36.8594 87.3516 36.8047C86.9062 36.75 86.4297 36.668 85.9219 36.5586ZM85.9219 35.8906C86.3359 35.9688 86.7031 36.0273 87.0234 36.0664C87.3438 36.1055 87.6172 36.125 87.8438 36.125C88.6562 36.125 89.3555 35.8125 89.9414 35.1875C90.5352 34.5547 90.832 33.7383 90.832 32.7383C90.832 32.0508 90.6914 31.4141 90.4102 30.8281C90.1289 30.2344 89.7305 29.793 89.2148 29.5039C88.6992 29.207 88.1133 29.0586 87.457 29.0586C87.0586 29.0586 86.5469 29.1328 85.9219 29.2812V35.8906ZM97.8398 27.3359C98.168 27.3359 98.4453 27.4531 98.6719 27.6875C98.9062 27.9141 99.0234 28.1914 99.0234 28.5195C99.0234 28.8477 98.9062 29.1289 98.6719 29.3633C98.4453 29.5977 98.168 29.7148 97.8398 29.7148C97.5117 29.7148 97.2305 29.5977 96.9961 29.3633C96.7617 29.1289 96.6445 28.8477 96.6445 28.5195C96.6445 28.1914 96.7578 27.9141 96.9844 27.6875C97.2188 27.4531 97.5039 27.3359 97.8398 27.3359ZM98.8125 32.9492V41.5742C98.8125 42.2461 98.8594 42.6953 98.9531 42.9219C99.0547 43.1406 99.1992 43.3047 99.3867 43.4141C99.582 43.5234 99.9336 43.5781 100.441 43.5781V44H95.2266V43.5781C95.75 43.5781 96.1016 43.5273 96.2812 43.4258C96.4609 43.3242 96.6016 43.1562 96.7031 42.9219C96.8125 42.6875 96.8672 42.2383 96.8672 41.5742V37.4375C96.8672 36.2734 96.832 35.5195 96.7617 35.1758C96.707 34.9258 96.6211 34.7539 96.5039 34.6602C96.3867 34.5586 96.2266 34.5078 96.0234 34.5078C95.8047 34.5078 95.5391 34.5664 95.2266 34.6836L95.0625 34.2617L98.2969 32.9492H98.8125ZM103.594 37.3086C103.586 38.9023 103.973 40.1523 104.754 41.0586C105.535 41.9648 106.453 42.418 107.508 42.418C108.211 42.418 108.82 42.2266 109.336 41.8438C109.859 41.4531 110.297 40.7891 110.648 39.8516L111.012 40.0859C110.848 41.1562 110.371 42.1328 109.582 43.0156C108.793 43.8906 107.805 44.3281 106.617 44.3281C105.328 44.3281 104.223 43.8281 103.301 42.8281C102.387 41.8203 101.93 40.4688 101.93 38.7734C101.93 36.9375 102.398 35.5078 103.336 34.4844C104.281 33.4531 105.465 32.9375 106.887 32.9375C108.09 32.9375 109.078 33.3359 109.852 34.1328C110.625 34.9219 111.012 35.9805 111.012 37.3086H103.594ZM103.594 36.6289H108.562C108.523 35.9414 108.441 35.457 108.316 35.1758C108.121 34.7383 107.828 34.3945 107.438 34.1445C107.055 33.8945 106.652 33.7695 106.23 33.7695C105.582 33.7695 105 34.0234 104.484 34.5312C103.977 35.0312 103.68 35.7305 103.594 36.6289ZM115.594 32.9492V35.3633C116.492 33.7539 117.414 32.9492 118.359 32.9492C118.789 32.9492 119.145 33.082 119.426 33.3477C119.707 33.6055 119.848 33.9062 119.848 34.25C119.848 34.5547 119.746 34.8125 119.543 35.0234C119.34 35.2344 119.098 35.3398 118.816 35.3398C118.543 35.3398 118.234 35.207 117.891 34.9414C117.555 34.668 117.305 34.5312 117.141 34.5312C117 34.5312 116.848 34.6094 116.684 34.7656C116.332 35.0859 115.969 35.6133 115.594 36.3477V41.4922C115.594 42.0859 115.668 42.5352 115.816 42.8398C115.918 43.0508 116.098 43.2266 116.355 43.3672C116.613 43.5078 116.984 43.5781 117.469 43.5781V44H111.973V43.5781C112.52 43.5781 112.926 43.4922 113.191 43.3203C113.387 43.1953 113.523 42.9961 113.602 42.7227C113.641 42.5898 113.66 42.2109 113.66 41.5859V37.4258C113.66 36.1758 113.633 35.4336 113.578 35.1992C113.531 34.957 113.438 34.7812 113.297 34.6719C113.164 34.5625 112.996 34.5078 112.793 34.5078C112.551 34.5078 112.277 34.5664 111.973 34.6836L111.855 34.2617L115.102 32.9492H115.594ZM128.027 42.793C127.504 43.3398 126.992 43.7344 126.492 43.9766C125.992 44.2109 125.453 44.3281 124.875 44.3281C123.703 44.3281 122.68 43.8398 121.805 42.8633C120.93 41.8789 120.492 40.6172 120.492 39.0781C120.492 37.5391 120.977 36.1328 121.945 34.8594C122.914 33.5781 124.16 32.9375 125.684 32.9375C126.629 32.9375 127.41 33.2383 128.027 33.8398V31.8594C128.027 30.6328 127.996 29.8789 127.934 29.5977C127.879 29.3164 127.789 29.125 127.664 29.0234C127.539 28.9219 127.383 28.8711 127.195 28.8711C126.992 28.8711 126.723 28.9336 126.387 29.0586L126.234 28.6484L129.434 27.3359H129.961V39.7461C129.961 41.0039 129.988 41.7734 130.043 42.0547C130.105 42.3281 130.199 42.5195 130.324 42.6289C130.457 42.7383 130.609 42.793 130.781 42.793C130.992 42.793 131.273 42.7266 131.625 42.5938L131.754 43.0039L128.566 44.3281H128.027V42.793ZM128.027 41.9727V36.4414C127.98 35.9102 127.84 35.4258 127.605 34.9883C127.371 34.5508 127.059 34.2227 126.668 34.0039C126.285 33.7773 125.91 33.6641 125.543 33.6641C124.855 33.6641 124.242 33.9727 123.703 34.5898C122.992 35.4023 122.637 36.5898 122.637 38.1523C122.637 39.7305 122.98 40.9414 123.668 41.7852C124.355 42.6211 125.121 43.0391 125.965 43.0391C126.676 43.0391 127.363 42.6836 128.027 41.9727ZM134.25 37.3086C134.242 38.9023 134.629 40.1523 135.41 41.0586C136.191 41.9648 137.109 42.418 138.164 42.418C138.867 42.418 139.477 42.2266 139.992 41.8438C140.516 41.4531 140.953 40.7891 141.305 39.8516L141.668 40.0859C141.504 41.1562 141.027 42.1328 140.238 43.0156C139.449 43.8906 138.461 44.3281 137.273 44.3281C135.984 44.3281 134.879 43.8281 133.957 42.8281C133.043 41.8203 132.586 40.4688 132.586 38.7734C132.586 36.9375 133.055 35.5078 133.992 34.4844C134.938 33.4531 136.121 32.9375 137.543 32.9375C138.746 32.9375 139.734 33.3359 140.508 34.1328C141.281 34.9219 141.668 35.9805 141.668 37.3086H134.25ZM134.25 36.6289H139.219C139.18 35.9414 139.098 35.457 138.973 35.1758C138.777 34.7383 138.484 34.3945 138.094 34.1445C137.711 33.8945 137.309 33.7695 136.887 33.7695C136.238 33.7695 135.656 34.0234 135.141 34.5312C134.633 35.0312 134.336 35.7305 134.25 36.6289ZM153.281 36.5586V41.1875C153.281 42.1875 153.391 42.8086 153.609 43.0508C153.906 43.3945 154.355 43.5664 154.957 43.5664H155.566V44H148.758V43.5664H149.355C150.027 43.5664 150.508 43.3477 150.797 42.9102C150.953 42.668 151.031 42.0938 151.031 41.1875V30.9219C151.031 29.9219 150.926 29.3008 150.715 29.0586C150.41 28.7148 149.957 28.543 149.355 28.543H148.758V28.1094H154.582C156.004 28.1094 157.125 28.2578 157.945 28.5547C158.766 28.8438 159.457 29.3359 160.02 30.0312C160.582 30.7266 160.863 31.5508 160.863 32.5039C160.863 33.8008 160.434 34.8555 159.574 35.668C158.723 36.4805 157.516 36.8867 155.953 36.8867C155.57 36.8867 155.156 36.8594 154.711 36.8047C154.266 36.75 153.789 36.668 153.281 36.5586ZM153.281 35.8906C153.695 35.9688 154.062 36.0273 154.383 36.0664C154.703 36.1055 154.977 36.125 155.203 36.125C156.016 36.125 156.715 35.8125 157.301 35.1875C157.895 34.5547 158.191 33.7383 158.191 32.7383C158.191 32.0508 158.051 31.4141 157.77 30.8281C157.488 30.2344 157.09 29.793 156.574 29.5039C156.059 29.207 155.473 29.0586 154.816 29.0586C154.418 29.0586 153.906 29.1328 153.281 29.2812V35.8906ZM164.273 37.3086C164.266 38.9023 164.652 40.1523 165.434 41.0586C166.215 41.9648 167.133 42.418 168.188 42.418C168.891 42.418 169.5 42.2266 170.016 41.8438C170.539 41.4531 170.977 40.7891 171.328 39.8516L171.691 40.0859C171.527 41.1562 171.051 42.1328 170.262 43.0156C169.473 43.8906 168.484 44.3281 167.297 44.3281C166.008 44.3281 164.902 43.8281 163.98 42.8281C163.066 41.8203 162.609 40.4688 162.609 38.7734C162.609 36.9375 163.078 35.5078 164.016 34.4844C164.961 33.4531 166.145 32.9375 167.566 32.9375C168.77 32.9375 169.758 33.3359 170.531 34.1328C171.305 34.9219 171.691 35.9805 171.691 37.3086H164.273ZM164.273 36.6289H169.242C169.203 35.9414 169.121 35.457 168.996 35.1758C168.801 34.7383 168.508 34.3945 168.117 34.1445C167.734 33.8945 167.332 33.7695 166.91 33.7695C166.262 33.7695 165.68 34.0234 165.164 34.5312C164.656 35.0312 164.359 35.7305 164.273 36.6289ZM180.07 32.9492V36.6055H179.684C179.387 35.457 179.004 34.6758 178.535 34.2617C178.074 33.8477 177.484 33.6406 176.766 33.6406C176.219 33.6406 175.777 33.7852 175.441 34.0742C175.105 34.3633 174.938 34.6836 174.938 35.0352C174.938 35.4727 175.062 35.8477 175.312 36.1602C175.555 36.4805 176.047 36.8203 176.789 37.1797L178.5 38.0117C180.086 38.7852 180.879 39.8047 180.879 41.0703C180.879 42.0469 180.508 42.8359 179.766 43.4375C179.031 44.0312 178.207 44.3281 177.293 44.3281C176.637 44.3281 175.887 44.2109 175.043 43.9766C174.785 43.8984 174.574 43.8594 174.41 43.8594C174.23 43.8594 174.09 43.9609 173.988 44.1641H173.602V40.332H173.988C174.207 41.4258 174.625 42.25 175.242 42.8047C175.859 43.3594 176.551 43.6367 177.316 43.6367C177.855 43.6367 178.293 43.4805 178.629 43.168C178.973 42.8477 179.145 42.4648 179.145 42.0195C179.145 41.4805 178.953 41.0273 178.57 40.6602C178.195 40.293 177.441 39.8281 176.309 39.2656C175.176 38.7031 174.434 38.1953 174.082 37.7422C173.73 37.2969 173.555 36.7344 173.555 36.0547C173.555 35.1719 173.855 34.4336 174.457 33.8398C175.066 33.2461 175.852 32.9492 176.812 32.9492C177.234 32.9492 177.746 33.0391 178.348 33.2188C178.746 33.3359 179.012 33.3945 179.145 33.3945C179.27 33.3945 179.367 33.3672 179.438 33.3125C179.508 33.2578 179.59 33.1367 179.684 32.9492H180.07ZM187.734 32.9492C189.359 32.9492 190.664 33.5664 191.648 34.8008C192.484 35.8555 192.902 37.0664 192.902 38.4336C192.902 39.3945 192.672 40.3672 192.211 41.3516C191.75 42.3359 191.113 43.0781 190.301 43.5781C189.496 44.0781 188.598 44.3281 187.605 44.3281C185.988 44.3281 184.703 43.6836 183.75 42.3945C182.945 41.3086 182.543 40.0898 182.543 38.7383C182.543 37.7539 182.785 36.7773 183.27 35.8086C183.762 34.832 184.406 34.1133 185.203 33.6523C186 33.1836 186.844 32.9492 187.734 32.9492ZM187.371 33.7109C186.957 33.7109 186.539 33.8359 186.117 34.0859C185.703 34.3281 185.367 34.7578 185.109 35.375C184.852 35.9922 184.723 36.7852 184.723 37.7539C184.723 39.3164 185.031 40.6641 185.648 41.7969C186.273 42.9297 187.094 43.4961 188.109 43.4961C188.867 43.4961 189.492 43.1836 189.984 42.5586C190.477 41.9336 190.723 40.8594 190.723 39.3359C190.723 37.4297 190.312 35.9297 189.492 34.8359C188.938 34.0859 188.23 33.7109 187.371 33.7109Z" fill="black"/>
<defs>
<filter id="filter0_d_1_24" x="0" y="0" width="73" height="74" filterUnits="userSpaceOnUse" color-interpolation-filters="sRGB">
<feFlood flood-opacity="0" result="BackgroundImageFix"/>
<feColorMatrix in="SourceAlpha" type="matrix" values="0 0 0 0 0 0 0 0 0 0 0 0 0 0 0 0 0 0 127 0" result="hardAlpha"/>
<feOffset dy="4"/>
<feGaussianBlur stdDeviation="2"/>
<feComposite in2="hardAlpha" operator="out"/>
<feColorMatrix type="matrix" values="0 0 0 0 0 0 0 0 0 0 0 0 0 0 0 0 0 0 0.25 0"/>
<feBlend mode="normal" in2="BackgroundImageFix" result="effect1_dropShadow_1_24"/>
<feBlend mode="normal" in="SourceGraphic" in2="effect1_dropShadow_1_24" result="shape"/>
</filter>
</defs>
</svg>
