<svg width="316" height="74" viewBox="0 0 316 74" fill="none" xmlns="http://www.w3.org/2000/svg">
<g filter="url(#filter0_d_1_23)">
<rect x="4" width="65" height="66" rx="32.5" fill="#003351"/>
<path d="M53.2924 22.6444C53.291 22.6444 53.2904 22.6461 53.2914 22.647C54.2371 23.5065 54.2362 24.8999 53.2886 25.7583L33.8622 43.3556C32.9136 44.2148 31.3732 44.2148 30.4246 43.3556L20.7114 34.5569C19.7629 33.6977 19.7629 32.3023 20.7114 31.4431C21.66 30.5838 23.2004 30.5838 24.149 31.4431L30.1337 36.8591C31.2766 37.8935 33.0175 37.8932 34.1603 36.8586L49.8586 22.6444C50.8062 21.786 52.3446 21.7852 53.2934 22.6419C53.2943 22.6428 53.2937 22.6444 53.2924 22.6444Z" fill="white"/>
</g>
<path d="M95.4492 27.7461L95.8125 33.1484H95.4492C94.9648 31.5312 94.2734 30.3672 93.375 29.6562C92.4766 28.9453 91.3984 28.5898 90.1406 28.5898C89.0859 28.5898 88.1328 28.8594 87.2812 29.3984C86.4297 29.9297 85.7578 30.7812 85.2656 31.9531C84.7812 33.125 84.5391 34.582 84.5391 36.3242C84.5391 37.7617 84.7695 39.0078 85.2305 40.0625C85.6914 41.1172 86.3828 41.9258 87.3047 42.4883C88.2344 43.0508 89.293 43.332 90.4805 43.332C91.5117 43.332 92.4219 43.1133 93.2109 42.6758C94 42.2305 94.8672 41.3516 95.8125 40.0391L96.1758 40.2734C95.3789 41.6875 94.4492 42.7227 93.3867 43.3789C92.3242 44.0352 91.0625 44.3633 89.6016 44.3633C86.9688 44.3633 84.9297 43.3867 83.4844 41.4336C82.4062 39.9805 81.8672 38.2695 81.8672 36.3008C81.8672 34.7148 82.2227 33.2578 82.9336 31.9297C83.6445 30.6016 84.6211 29.5742 85.8633 28.8477C87.1133 28.1133 88.4766 27.7461 89.9531 27.7461C91.1016 27.7461 92.2344 28.0273 93.3516 28.5898C93.6797 28.7617 93.9141 28.8477 94.0547 28.8477C94.2656 28.8477 94.4492 28.7734 94.6055 28.625C94.8086 28.4141 94.9531 28.1211 95.0391 27.7461H95.4492ZM103.84 42.4531C102.738 43.3047 102.047 43.7969 101.766 43.9297C101.344 44.125 100.895 44.2227 100.418 44.2227C99.6758 44.2227 99.0625 43.9688 98.5781 43.4609C98.1016 42.9531 97.8633 42.2852 97.8633 41.457C97.8633 40.9336 97.9805 40.4805 98.2148 40.0977C98.5352 39.5664 99.0898 39.0664 99.8789 38.5977C100.676 38.1289 101.996 37.5586 103.84 36.8867V36.4648C103.84 35.3945 103.668 34.6602 103.324 34.2617C102.988 33.8633 102.496 33.6641 101.848 33.6641C101.355 33.6641 100.965 33.7969 100.676 34.0625C100.379 34.3281 100.23 34.6328 100.23 34.9766L100.254 35.6562C100.254 36.0156 100.16 36.293 99.9727 36.4883C99.793 36.6836 99.5547 36.7812 99.2578 36.7812C98.9688 36.7812 98.7305 36.6797 98.543 36.4766C98.3633 36.2734 98.2734 35.9961 98.2734 35.6445C98.2734 34.9727 98.6172 34.3555 99.3047 33.793C99.9922 33.2305 100.957 32.9492 102.199 32.9492C103.152 32.9492 103.934 33.1094 104.543 33.4297C105.004 33.6719 105.344 34.0508 105.562 34.5664C105.703 34.9023 105.773 35.5898 105.773 36.6289V40.2734C105.773 41.2969 105.793 41.9258 105.832 42.1602C105.871 42.3867 105.934 42.5391 106.02 42.6172C106.113 42.6953 106.219 42.7344 106.336 42.7344C106.461 42.7344 106.57 42.707 106.664 42.6523C106.828 42.5508 107.145 42.2656 107.613 41.7969V42.4531C106.738 43.625 105.902 44.2109 105.105 44.2109C104.723 44.2109 104.418 44.0781 104.191 43.8125C103.965 43.5469 103.848 43.0938 103.84 42.4531ZM103.84 41.6914V37.6016C102.66 38.0703 101.898 38.4023 101.555 38.5977C100.938 38.9414 100.496 39.3008 100.23 39.6758C99.9648 40.0508 99.832 40.4609 99.832 40.9062C99.832 41.4688 100 41.9375 100.336 42.3125C100.672 42.6797 101.059 42.8633 101.496 42.8633C102.09 42.8633 102.871 42.4727 103.84 41.6914ZM112.113 27.3359V41.5742C112.113 42.2461 112.16 42.6914 112.254 42.9102C112.355 43.1289 112.508 43.2969 112.711 43.4141C112.914 43.5234 113.293 43.5781 113.848 43.5781V44H108.586V43.5781C109.078 43.5781 109.414 43.5273 109.594 43.4258C109.773 43.3242 109.914 43.1562 110.016 42.9219C110.117 42.6875 110.168 42.2383 110.168 41.5742V31.8242C110.168 30.6133 110.141 29.8711 110.086 29.5977C110.031 29.3164 109.941 29.125 109.816 29.0234C109.699 28.9219 109.547 28.8711 109.359 28.8711C109.156 28.8711 108.898 28.9336 108.586 29.0586L108.387 28.6484L111.586 27.3359H112.113ZM124.219 39.9219C123.93 41.3359 123.363 42.4258 122.52 43.1914C121.676 43.9492 120.742 44.3281 119.719 44.3281C118.5 44.3281 117.438 43.8164 116.531 42.793C115.625 41.7695 115.172 40.3867 115.172 38.6445C115.172 36.957 115.672 35.5859 116.672 34.5312C117.68 33.4766 118.887 32.9492 120.293 32.9492C121.348 32.9492 122.215 33.2305 122.895 33.793C123.574 34.3477 123.914 34.9258 123.914 35.5273C123.914 35.8242 123.816 36.0664 123.621 36.2539C123.434 36.4336 123.168 36.5234 122.824 36.5234C122.363 36.5234 122.016 36.375 121.781 36.0781C121.648 35.9141 121.559 35.6016 121.512 35.1406C121.473 34.6797 121.316 34.3281 121.043 34.0859C120.77 33.8516 120.391 33.7344 119.906 33.7344C119.125 33.7344 118.496 34.0234 118.02 34.6016C117.387 35.3672 117.07 36.3789 117.07 37.6367C117.07 38.918 117.383 40.0508 118.008 41.0352C118.641 42.0117 119.492 42.5 120.562 42.5C121.328 42.5 122.016 42.2383 122.625 41.7148C123.055 41.3555 123.473 40.7031 123.879 39.7578L124.219 39.9219ZM135.176 33.2656V39.7695C135.176 41.0117 135.203 41.7734 135.258 42.0547C135.32 42.3281 135.414 42.5195 135.539 42.6289C135.672 42.7383 135.824 42.793 135.996 42.793C136.238 42.793 136.512 42.7266 136.816 42.5938L136.98 43.0039L133.77 44.3281H133.242V42.0547C132.32 43.0547 131.617 43.6836 131.133 43.9414C130.648 44.1992 130.137 44.3281 129.598 44.3281C128.996 44.3281 128.473 44.1562 128.027 43.8125C127.59 43.4609 127.285 43.0117 127.113 42.4648C126.941 41.918 126.855 41.1445 126.855 40.1445V35.3516C126.855 34.8438 126.801 34.4922 126.691 34.2969C126.582 34.1016 126.418 33.9531 126.199 33.8516C125.988 33.7422 125.602 33.6914 125.039 33.6992V33.2656H128.801V40.4492C128.801 41.4492 128.973 42.1055 129.316 42.418C129.668 42.7305 130.09 42.8867 130.582 42.8867C130.918 42.8867 131.297 42.7812 131.719 42.5703C132.148 42.3594 132.656 41.957 133.242 41.3633V35.2812C133.242 34.6719 133.129 34.2617 132.902 34.0508C132.684 33.832 132.223 33.7148 131.52 33.6992V33.2656H135.176ZM141.457 27.3359V41.5742C141.457 42.2461 141.504 42.6914 141.598 42.9102C141.699 43.1289 141.852 43.2969 142.055 43.4141C142.258 43.5234 142.637 43.5781 143.191 43.5781V44H137.93V43.5781C138.422 43.5781 138.758 43.5273 138.938 43.4258C139.117 43.3242 139.258 43.1562 139.359 42.9219C139.461 42.6875 139.512 42.2383 139.512 41.5742V31.8242C139.512 30.6133 139.484 29.8711 139.43 29.5977C139.375 29.3164 139.285 29.125 139.16 29.0234C139.043 28.9219 138.891 28.8711 138.703 28.8711C138.5 28.8711 138.242 28.9336 137.93 29.0586L137.73 28.6484L140.93 27.3359H141.457ZM150.527 42.4531C149.426 43.3047 148.734 43.7969 148.453 43.9297C148.031 44.125 147.582 44.2227 147.105 44.2227C146.363 44.2227 145.75 43.9688 145.266 43.4609C144.789 42.9531 144.551 42.2852 144.551 41.457C144.551 40.9336 144.668 40.4805 144.902 40.0977C145.223 39.5664 145.777 39.0664 146.566 38.5977C147.363 38.1289 148.684 37.5586 150.527 36.8867V36.4648C150.527 35.3945 150.355 34.6602 150.012 34.2617C149.676 33.8633 149.184 33.6641 148.535 33.6641C148.043 33.6641 147.652 33.7969 147.363 34.0625C147.066 34.3281 146.918 34.6328 146.918 34.9766L146.941 35.6562C146.941 36.0156 146.848 36.293 146.66 36.4883C146.48 36.6836 146.242 36.7812 145.945 36.7812C145.656 36.7812 145.418 36.6797 145.23 36.4766C145.051 36.2734 144.961 35.9961 144.961 35.6445C144.961 34.9727 145.305 34.3555 145.992 33.793C146.68 33.2305 147.645 32.9492 148.887 32.9492C149.84 32.9492 150.621 33.1094 151.23 33.4297C151.691 33.6719 152.031 34.0508 152.25 34.5664C152.391 34.9023 152.461 35.5898 152.461 36.6289V40.2734C152.461 41.2969 152.48 41.9258 152.52 42.1602C152.559 42.3867 152.621 42.5391 152.707 42.6172C152.801 42.6953 152.906 42.7344 153.023 42.7344C153.148 42.7344 153.258 42.707 153.352 42.6523C153.516 42.5508 153.832 42.2656 154.301 41.7969V42.4531C153.426 43.625 152.59 44.2109 151.793 44.2109C151.41 44.2109 151.105 44.0781 150.879 43.8125C150.652 43.5469 150.535 43.0938 150.527 42.4531ZM150.527 41.6914V37.6016C149.348 38.0703 148.586 38.4023 148.242 38.5977C147.625 38.9414 147.184 39.3008 146.918 39.6758C146.652 40.0508 146.52 40.4609 146.52 40.9062C146.52 41.4688 146.688 41.9375 147.023 42.3125C147.359 42.6797 147.746 42.8633 148.184 42.8633C148.777 42.8633 149.559 42.4727 150.527 41.6914ZM164.227 29.7383V33.2656H166.734V34.0859H164.227V41.0469C164.227 41.7422 164.324 42.2109 164.52 42.4531C164.723 42.6953 164.98 42.8164 165.293 42.8164C165.551 42.8164 165.801 42.7383 166.043 42.582C166.285 42.418 166.473 42.1797 166.605 41.8672H167.062C166.789 42.6328 166.402 43.2109 165.902 43.6016C165.402 43.9844 164.887 44.1758 164.355 44.1758C163.996 44.1758 163.645 44.0781 163.301 43.8828C162.957 43.6797 162.703 43.3945 162.539 43.0273C162.375 42.6523 162.293 42.0781 162.293 41.3047V34.0859H160.594V33.6992C161.023 33.5273 161.461 33.2383 161.906 32.832C162.359 32.418 162.762 31.9297 163.113 31.3672C163.293 31.0703 163.543 30.5273 163.863 29.7383H164.227ZM177.199 33.2656V39.7695C177.199 41.0117 177.227 41.7734 177.281 42.0547C177.344 42.3281 177.438 42.5195 177.562 42.6289C177.695 42.7383 177.848 42.793 178.02 42.793C178.262 42.793 178.535 42.7266 178.84 42.5938L179.004 43.0039L175.793 44.3281H175.266V42.0547C174.344 43.0547 173.641 43.6836 173.156 43.9414C172.672 44.1992 172.16 44.3281 171.621 44.3281C171.02 44.3281 170.496 44.1562 170.051 43.8125C169.613 43.4609 169.309 43.0117 169.137 42.4648C168.965 41.918 168.879 41.1445 168.879 40.1445V35.3516C168.879 34.8438 168.824 34.4922 168.715 34.2969C168.605 34.1016 168.441 33.9531 168.223 33.8516C168.012 33.7422 167.625 33.6914 167.062 33.6992V33.2656H170.824V40.4492C170.824 41.4492 170.996 42.1055 171.34 42.418C171.691 42.7305 172.113 42.8867 172.605 42.8867C172.941 42.8867 173.32 42.7812 173.742 42.5703C174.172 42.3594 174.68 41.957 175.266 41.3633V35.2812C175.266 34.6719 175.152 34.2617 174.926 34.0508C174.707 33.832 174.246 33.7148 173.543 33.6992V33.2656H177.199ZM186.727 32.9492V36.6055H186.34C186.043 35.457 185.66 34.6758 185.191 34.2617C184.73 33.8477 184.141 33.6406 183.422 33.6406C182.875 33.6406 182.434 33.7852 182.098 34.0742C181.762 34.3633 181.594 34.6836 181.594 35.0352C181.594 35.4727 181.719 35.8477 181.969 36.1602C182.211 36.4805 182.703 36.8203 183.445 37.1797L185.156 38.0117C186.742 38.7852 187.535 39.8047 187.535 41.0703C187.535 42.0469 187.164 42.8359 186.422 43.4375C185.688 44.0312 184.863 44.3281 183.949 44.3281C183.293 44.3281 182.543 44.2109 181.699 43.9766C181.441 43.8984 181.23 43.8594 181.066 43.8594C180.887 43.8594 180.746 43.9609 180.645 44.1641H180.258V40.332H180.645C180.863 41.4258 181.281 42.25 181.898 42.8047C182.516 43.3594 183.207 43.6367 183.973 43.6367C184.512 43.6367 184.949 43.4805 185.285 43.168C185.629 42.8477 185.801 42.4648 185.801 42.0195C185.801 41.4805 185.609 41.0273 185.227 40.6602C184.852 40.293 184.098 39.8281 182.965 39.2656C181.832 38.7031 181.09 38.1953 180.738 37.7422C180.387 37.2969 180.211 36.7344 180.211 36.0547C180.211 35.1719 180.512 34.4336 181.113 33.8398C181.723 33.2461 182.508 32.9492 183.469 32.9492C183.891 32.9492 184.402 33.0391 185.004 33.2188C185.402 33.3359 185.668 33.3945 185.801 33.3945C185.926 33.3945 186.023 33.3672 186.094 33.3125C186.164 33.2578 186.246 33.1367 186.34 32.9492H186.727ZM204.258 39.9219C203.969 41.3359 203.402 42.4258 202.559 43.1914C201.715 43.9492 200.781 44.3281 199.758 44.3281C198.539 44.3281 197.477 43.8164 196.57 42.793C195.664 41.7695 195.211 40.3867 195.211 38.6445C195.211 36.957 195.711 35.5859 196.711 34.5312C197.719 33.4766 198.926 32.9492 200.332 32.9492C201.387 32.9492 202.254 33.2305 202.934 33.793C203.613 34.3477 203.953 34.9258 203.953 35.5273C203.953 35.8242 203.855 36.0664 203.66 36.2539C203.473 36.4336 203.207 36.5234 202.863 36.5234C202.402 36.5234 202.055 36.375 201.82 36.0781C201.688 35.9141 201.598 35.6016 201.551 35.1406C201.512 34.6797 201.355 34.3281 201.082 34.0859C200.809 33.8516 200.43 33.7344 199.945 33.7344C199.164 33.7344 198.535 34.0234 198.059 34.6016C197.426 35.3672 197.109 36.3789 197.109 37.6367C197.109 38.918 197.422 40.0508 198.047 41.0352C198.68 42.0117 199.531 42.5 200.602 42.5C201.367 42.5 202.055 42.2383 202.664 41.7148C203.094 41.3555 203.512 40.7031 203.918 39.7578L204.258 39.9219ZM211.887 42.4531C210.785 43.3047 210.094 43.7969 209.812 43.9297C209.391 44.125 208.941 44.2227 208.465 44.2227C207.723 44.2227 207.109 43.9688 206.625 43.4609C206.148 42.9531 205.91 42.2852 205.91 41.457C205.91 40.9336 206.027 40.4805 206.262 40.0977C206.582 39.5664 207.137 39.0664 207.926 38.5977C208.723 38.1289 210.043 37.5586 211.887 36.8867V36.4648C211.887 35.3945 211.715 34.6602 211.371 34.2617C211.035 33.8633 210.543 33.6641 209.895 33.6641C209.402 33.6641 209.012 33.7969 208.723 34.0625C208.426 34.3281 208.277 34.6328 208.277 34.9766L208.301 35.6562C208.301 36.0156 208.207 36.293 208.02 36.4883C207.84 36.6836 207.602 36.7812 207.305 36.7812C207.016 36.7812 206.777 36.6797 206.59 36.4766C206.41 36.2734 206.32 35.9961 206.32 35.6445C206.32 34.9727 206.664 34.3555 207.352 33.793C208.039 33.2305 209.004 32.9492 210.246 32.9492C211.199 32.9492 211.98 33.1094 212.59 33.4297C213.051 33.6719 213.391 34.0508 213.609 34.5664C213.75 34.9023 213.82 35.5898 213.82 36.6289V40.2734C213.82 41.2969 213.84 41.9258 213.879 42.1602C213.918 42.3867 213.98 42.5391 214.066 42.6172C214.16 42.6953 214.266 42.7344 214.383 42.7344C214.508 42.7344 214.617 42.707 214.711 42.6523C214.875 42.5508 215.191 42.2656 215.66 41.7969V42.4531C214.785 43.625 213.949 44.2109 213.152 44.2109C212.77 44.2109 212.465 44.0781 212.238 43.8125C212.012 43.5469 211.895 43.0938 211.887 42.4531ZM211.887 41.6914V37.6016C210.707 38.0703 209.945 38.4023 209.602 38.5977C208.984 38.9414 208.543 39.3008 208.277 39.6758C208.012 40.0508 207.879 40.4609 207.879 40.9062C207.879 41.4688 208.047 41.9375 208.383 42.3125C208.719 42.6797 209.105 42.8633 209.543 42.8633C210.137 42.8633 210.918 42.4727 211.887 41.6914ZM220.16 27.3359V41.5742C220.16 42.2461 220.207 42.6914 220.301 42.9102C220.402 43.1289 220.555 43.2969 220.758 43.4141C220.961 43.5234 221.34 43.5781 221.895 43.5781V44H216.633V43.5781C217.125 43.5781 217.461 43.5273 217.641 43.4258C217.82 43.3242 217.961 43.1562 218.062 42.9219C218.164 42.6875 218.215 42.2383 218.215 41.5742V31.8242C218.215 30.6133 218.188 29.8711 218.133 29.5977C218.078 29.3164 217.988 29.125 217.863 29.0234C217.746 28.9219 217.594 28.8711 217.406 28.8711C217.203 28.8711 216.945 28.9336 216.633 29.0586L216.434 28.6484L219.633 27.3359H220.16ZM228.398 32.9492C230.023 32.9492 231.328 33.5664 232.312 34.8008C233.148 35.8555 233.566 37.0664 233.566 38.4336C233.566 39.3945 233.336 40.3672 232.875 41.3516C232.414 42.3359 231.777 43.0781 230.965 43.5781C230.16 44.0781 229.262 44.3281 228.27 44.3281C226.652 44.3281 225.367 43.6836 224.414 42.3945C223.609 41.3086 223.207 40.0898 223.207 38.7383C223.207 37.7539 223.449 36.7773 223.934 35.8086C224.426 34.832 225.07 34.1133 225.867 33.6523C226.664 33.1836 227.508 32.9492 228.398 32.9492ZM228.035 33.7109C227.621 33.7109 227.203 33.8359 226.781 34.0859C226.367 34.3281 226.031 34.7578 225.773 35.375C225.516 35.9922 225.387 36.7852 225.387 37.7539C225.387 39.3164 225.695 40.6641 226.312 41.7969C226.938 42.9297 227.758 43.4961 228.773 43.4961C229.531 43.4961 230.156 43.1836 230.648 42.5586C231.141 41.9336 231.387 40.8594 231.387 39.3359C231.387 37.4297 230.977 35.9297 230.156 34.8359C229.602 34.0859 228.895 33.7109 228.035 33.7109ZM238.289 32.9492V35.3633C239.188 33.7539 240.109 32.9492 241.055 32.9492C241.484 32.9492 241.84 33.082 242.121 33.3477C242.402 33.6055 242.543 33.9062 242.543 34.25C242.543 34.5547 242.441 34.8125 242.238 35.0234C242.035 35.2344 241.793 35.3398 241.512 35.3398C241.238 35.3398 240.93 35.207 240.586 34.9414C240.25 34.668 240 34.5312 239.836 34.5312C239.695 34.5312 239.543 34.6094 239.379 34.7656C239.027 35.0859 238.664 35.6133 238.289 36.3477V41.4922C238.289 42.0859 238.363 42.5352 238.512 42.8398C238.613 43.0508 238.793 43.2266 239.051 43.3672C239.309 43.5078 239.68 43.5781 240.164 43.5781V44H234.668V43.5781C235.215 43.5781 235.621 43.4922 235.887 43.3203C236.082 43.1953 236.219 42.9961 236.297 42.7227C236.336 42.5898 236.355 42.2109 236.355 41.5859V37.4258C236.355 36.1758 236.328 35.4336 236.273 35.1992C236.227 34.957 236.133 34.7812 235.992 34.6719C235.859 34.5625 235.691 34.5078 235.488 34.5078C235.246 34.5078 234.973 34.5664 234.668 34.6836L234.551 34.2617L237.797 32.9492H238.289ZM245.871 27.3359C246.199 27.3359 246.477 27.4531 246.703 27.6875C246.938 27.9141 247.055 28.1914 247.055 28.5195C247.055 28.8477 246.938 29.1289 246.703 29.3633C246.477 29.5977 246.199 29.7148 245.871 29.7148C245.543 29.7148 245.262 29.5977 245.027 29.3633C244.793 29.1289 244.676 28.8477 244.676 28.5195C244.676 28.1914 244.789 27.9141 245.016 27.6875C245.25 27.4531 245.535 27.3359 245.871 27.3359ZM246.844 32.9492V41.5742C246.844 42.2461 246.891 42.6953 246.984 42.9219C247.086 43.1406 247.23 43.3047 247.418 43.4141C247.613 43.5234 247.965 43.5781 248.473 43.5781V44H243.258V43.5781C243.781 43.5781 244.133 43.5273 244.312 43.4258C244.492 43.3242 244.633 43.1562 244.734 42.9219C244.844 42.6875 244.898 42.2383 244.898 41.5742V37.4375C244.898 36.2734 244.863 35.5195 244.793 35.1758C244.738 34.9258 244.652 34.7539 244.535 34.6602C244.418 34.5586 244.258 34.5078 244.055 34.5078C243.836 34.5078 243.57 34.5664 243.258 34.6836L243.094 34.2617L246.328 32.9492H246.844ZM255.902 42.4531C254.801 43.3047 254.109 43.7969 253.828 43.9297C253.406 44.125 252.957 44.2227 252.48 44.2227C251.738 44.2227 251.125 43.9688 250.641 43.4609C250.164 42.9531 249.926 42.2852 249.926 41.457C249.926 40.9336 250.043 40.4805 250.277 40.0977C250.598 39.5664 251.152 39.0664 251.941 38.5977C252.738 38.1289 254.059 37.5586 255.902 36.8867V36.4648C255.902 35.3945 255.73 34.6602 255.387 34.2617C255.051 33.8633 254.559 33.6641 253.91 33.6641C253.418 33.6641 253.027 33.7969 252.738 34.0625C252.441 34.3281 252.293 34.6328 252.293 34.9766L252.316 35.6562C252.316 36.0156 252.223 36.293 252.035 36.4883C251.855 36.6836 251.617 36.7812 251.32 36.7812C251.031 36.7812 250.793 36.6797 250.605 36.4766C250.426 36.2734 250.336 35.9961 250.336 35.6445C250.336 34.9727 250.68 34.3555 251.367 33.793C252.055 33.2305 253.02 32.9492 254.262 32.9492C255.215 32.9492 255.996 33.1094 256.605 33.4297C257.066 33.6719 257.406 34.0508 257.625 34.5664C257.766 34.9023 257.836 35.5898 257.836 36.6289V40.2734C257.836 41.2969 257.855 41.9258 257.895 42.1602C257.934 42.3867 257.996 42.5391 258.082 42.6172C258.176 42.6953 258.281 42.7344 258.398 42.7344C258.523 42.7344 258.633 42.707 258.727 42.6523C258.891 42.5508 259.207 42.2656 259.676 41.7969V42.4531C258.801 43.625 257.965 44.2109 257.168 44.2109C256.785 44.2109 256.48 44.0781 256.254 43.8125C256.027 43.5469 255.91 43.0938 255.902 42.4531ZM255.902 41.6914V37.6016C254.723 38.0703 253.961 38.4023 253.617 38.5977C253 38.9414 252.559 39.3008 252.293 39.6758C252.027 40.0508 251.895 40.4609 251.895 40.9062C251.895 41.4688 252.062 41.9375 252.398 42.3125C252.734 42.6797 253.121 42.8633 253.559 42.8633C254.152 42.8633 254.934 42.4727 255.902 41.6914ZM267.422 32.9492V36.6055H267.035C266.738 35.457 266.355 34.6758 265.887 34.2617C265.426 33.8477 264.836 33.6406 264.117 33.6406C263.57 33.6406 263.129 33.7852 262.793 34.0742C262.457 34.3633 262.289 34.6836 262.289 35.0352C262.289 35.4727 262.414 35.8477 262.664 36.1602C262.906 36.4805 263.398 36.8203 264.141 37.1797L265.852 38.0117C267.438 38.7852 268.23 39.8047 268.23 41.0703C268.23 42.0469 267.859 42.8359 267.117 43.4375C266.383 44.0312 265.559 44.3281 264.645 44.3281C263.988 44.3281 263.238 44.2109 262.395 43.9766C262.137 43.8984 261.926 43.8594 261.762 43.8594C261.582 43.8594 261.441 43.9609 261.34 44.1641H260.953V40.332H261.34C261.559 41.4258 261.977 42.25 262.594 42.8047C263.211 43.3594 263.902 43.6367 264.668 43.6367C265.207 43.6367 265.645 43.4805 265.98 43.168C266.324 42.8477 266.496 42.4648 266.496 42.0195C266.496 41.4805 266.305 41.0273 265.922 40.6602C265.547 40.293 264.793 39.8281 263.66 39.2656C262.527 38.7031 261.785 38.1953 261.434 37.7422C261.082 37.2969 260.906 36.7344 260.906 36.0547C260.906 35.1719 261.207 34.4336 261.809 33.8398C262.418 33.2461 263.203 32.9492 264.164 32.9492C264.586 32.9492 265.098 33.0391 265.699 33.2188C266.098 33.3359 266.363 33.3945 266.496 33.3945C266.621 33.3945 266.719 33.3672 266.789 33.3125C266.859 33.2578 266.941 33.1367 267.035 32.9492H267.422Z" fill="black"/>
<defs>
<filter id="filter0_d_1_23" x="0" y="0" width="73" height="74" filterUnits="userSpaceOnUse" color-interpolation-filters="sRGB">
<feFlood flood-opacity="0" result="BackgroundImageFix"/>
<feColorMatrix in="SourceAlpha" type="matrix" values="0 0 0 0 0 0 0 0 0 0 0 0 0 0 0 0 0 0 127 0" result="hardAlpha"/>
<feOffset dy="4"/>
<feGaussianBlur stdDeviation="2"/>
<feComposite in2="hardAlpha" operator="out"/>
<feColorMatrix type="matrix" values="0 0 0 0 0 0 0 0 0 0 0 0 0 0 0 0 0 0 0.25 0"/>
<feBlend mode="normal" in2="BackgroundImageFix" result="effect1_dropShadow_1_23"/>
<feBlend mode="normal" in="SourceGraphic" in2="effect1_dropShadow_1_23" result="shape"/>
</filter>
</defs>
</svg>
